<?xml version="1.0" standalone="no"?>
<!DOCTYPE svg PUBLIC "-//W3C//DTD SVG 20010904//EN"
 "http://www.w3.org/TR/2001/REC-SVG-20010904/DTD/svg10.dtd">
<svg version="1.0" xmlns="http://www.w3.org/2000/svg"
 width="740.000000pt" height="740.000000pt" viewBox="0 0 740.000000 740.000000"
 preserveAspectRatio="xMidYMid meet">

<g transform="translate(0.000000,740.000000) scale(0.100000,-0.100000)"
fill="#000000" stroke="none">
<path d="M3686 6843 c-25 -79 -105 -237 -172 -341 -206 -316 -392 -477 -616
-534 -44 -11 -81 -18 -84 -15 -2 2 28 21 68 42 96 50 169 97 245 157 65 51
160 155 151 164 -19 19 -325 -74 -499 -151 -176 -78 -387 -216 -529 -345 l-45
-41 85 7 c47 3 164 23 260 44 180 40 314 63 433 75 58 6 66 5 61 -8 -4 -10
-26 -17 -67 -22 -111 -11 -249 -36 -431 -76 -99 -22 -215 -42 -260 -44 -62 -3
-87 -9 -109 -25 -27 -21 -33 -21 -120 -10 -148 19 -348 76 -451 127 l-49 25
37 -64 c56 -96 225 -438 238 -481 10 -32 9 -40 -5 -54 -12 -13 -19 -14 -30 -5
-11 9 -24 -1 -65 -52 -144 -177 -343 -317 -490 -346 -78 -16 -160 -8 -255 24
-40 13 -73 23 -75 22 -12 -13 335 -338 564 -529 58 -48 94 -85 94 -96 0 -11
-16 -50 -34 -88 -19 -37 -44 -89 -55 -115 l-20 -47 27 -5 c15 -3 117 -17 227
-31 693 -87 987 -182 1307 -422 70 -54 188 -159 188 -168 0 -3 -44 32 -98 78
-155 129 -385 249 -622 325 -240 76 -620 137 -1115 177 -104 8 -203 17 -219
20 -28 5 -28 4 -13 -13 9 -10 21 -50 27 -93 5 -40 15 -104 21 -141 l11 -68
103 0 c133 0 137 -4 106 -102 -26 -81 -23 -88 45 -88 221 -1 730 -40 909 -71
422 -71 752 -225 1010 -470 73 -69 195 -220 195 -240 0 -5 -64 55 -142 134
-110 110 -169 161 -253 217 -291 191 -629 302 -1045 344 -270 27 -841 49 -857
32 -3 -2 1 -24 9 -48 12 -36 19 -43 49 -49 19 -4 176 -9 349 -13 498 -10 739
-29 939 -76 279 -66 540 -192 725 -349 60 -51 206 -209 206 -223 0 -23 -33 3
-136 101 -126 122 -222 190 -362 258 -279 134 -574 205 -977 232 -162 11
-1054 35 -1061 28 -2 -2 6 -27 18 -55 20 -44 28 -52 58 -58 19 -4 278 -2 575
5 561 13 710 9 910 -25 272 -46 516 -142 692 -274 99 -74 260 -225 251 -235
-4 -4 -35 18 -69 50 -161 149 -358 265 -564 334 -103 34 -297 75 -430 91 -154
18 -620 21 -1088 8 l-448 -13 65 -73 66 -73 0 -209 0 -210 -23 0 c-41 0 -127
-51 -157 -92 -72 -100 -36 -239 75 -289 37 -17 77 -19 548 -19 l508 0 78 -69
c171 -150 334 -258 546 -361 550 -267 1175 -322 1756 -155 340 98 660 269 919
492 l108 93 509 0 c508 0 509 0 553 23 26 13 57 40 75 65 78 113 -4 286 -147
308 l-38 7 0 208 0 208 60 68 c33 37 60 71 60 74 0 9 -696 24 -1085 23 -347 0
-457 -9 -655 -49 -164 -33 -286 -75 -435 -149 -123 -61 -186 -105 -378 -267
-75 -63 -46 -20 45 66 207 197 406 309 673 378 276 72 439 82 1070 67 275 -7
529 -10 565 -9 l65 4 28 54 c15 30 26 56 23 58 -6 7 -918 -17 -1066 -28 -373
-27 -639 -85 -895 -196 -184 -79 -307 -162 -470 -317 -49 -47 -93 -86 -97 -86
-18 0 -4 20 71 105 126 144 257 241 454 335 206 99 412 156 667 184 149 17
579 36 820 36 217 0 225 2 246 56 9 25 14 47 11 50 -8 8 -319 5 -517 -6 -504
-28 -749 -72 -1043 -189 -248 -99 -429 -222 -625 -425 -61 -65 -112 -113 -112
-109 0 25 86 131 184 228 313 310 705 466 1311 520 158 14 525 35 619 35 67 0
70 7 45 84 -31 95 -27 100 97 104 54 1 102 6 107 11 4 4 17 70 28 146 11 77
24 144 29 150 6 8 -18 8 -83 3 -687 -59 -1004 -108 -1278 -198 -249 -82 -486
-209 -632 -340 -32 -29 -60 -50 -62 -48 -7 7 141 132 240 203 284 203 610 302
1275 385 225 28 222 27 215 53 -4 12 -27 65 -52 119 -32 68 -44 103 -39 120 4
12 41 50 84 84 178 141 562 500 562 526 0 3 -32 -6 -71 -19 -179 -60 -305 -37
-493 89 -72 49 -200 171 -258 245 -32 42 -43 51 -54 42 -18 -15 -44 5 -44 33
0 38 192 429 268 547 l16 23 -50 -25 c-100 -51 -344 -116 -490 -131 -52 -6
-64 -4 -86 14 -17 13 -41 20 -70 20 -60 0 -147 15 -328 55 -150 33 -283 56
-402 70 -37 4 -58 11 -62 22 -6 13 3 14 61 8 116 -11 243 -33 429 -74 190 -42
339 -61 333 -43 -7 19 -174 154 -269 218 -123 82 -351 191 -508 243 -123 41
-279 77 -288 68 -10 -10 161 -174 226 -218 36 -24 108 -67 160 -96 52 -29 91
-53 87 -53 -23 0 -157 35 -194 51 -70 30 -186 114 -266 191 -161 158 -358 468
-417 656 l-16 52 -18 -57z m187 -528 c36 -55 131 -181 209 -281 143 -181 222
-290 271 -374 l26 -45 -53 -28 c-234 -122 -429 -449 -516 -863 -23 -110 -25
-66 -4 98 28 217 81 419 151 566 43 90 136 231 197 297 41 43 44 51 31 64 -8
8 -16 13 -18 10 -2 -2 -31 -36 -64 -76 -149 -174 -241 -356 -294 -578 l-19
-80 6 65 c21 247 128 581 236 738 24 35 27 46 17 58 -10 12 -18 6 -51 -43 -86
-127 -145 -269 -194 -468 l-33 -130 5 85 c15 251 81 597 133 699 18 34 19 41
5 51 -8 7 -16 11 -18 9 -2 -2 -22 -58 -44 -124 -43 -130 -84 -315 -104 -472
-12 -91 -13 -64 -18 372 -5 462 -5 470 -25 470 -20 0 -20 -8 -25 -475 -5 -444
-6 -469 -18 -375 -20 155 -60 338 -104 475 -22 69 -42 127 -44 129 -3 3 -12
-2 -20 -11 -14 -14 -14 -18 -1 -39 52 -80 126 -463 140 -719 l5 -85 -38 150
c-48 188 -96 309 -169 423 -52 81 -59 88 -75 76 -17 -12 -17 -14 4 -36 59 -63
151 -273 194 -444 26 -102 67 -334 65 -369 -1 -11 -7 9 -15 43 -37 169 -117
360 -201 481 -66 95 -163 200 -179 194 -21 -8 -17 -17 18 -54 154 -165 274
-414 328 -682 22 -108 51 -326 49 -367 -1 -29 -1 -29 -25 95 -20 103 -92 323
-134 405 -52 104 -137 229 -204 298 -52 55 -180 152 -217 164 -24 8 111 203
331 478 114 143 223 307 285 428 l48 93 51 -98 c29 -54 82 -143 119 -198z
m-930 -537 c-11 -57 -24 -78 -18 -29 3 24 8 48 11 53 10 17 13 7 7 -24z m1542
-45 l5 -48 -15 55 c-17 65 -18 81 -5 58 6 -9 12 -38 15 -65z m-1618 35 c-3 -8
-6 -5 -6 6 -1 11 2 17 5 13 3 -3 4 -12 1 -19z m1691 -43 l1 -20 -9 20 c-5 11
-8 31 -8 45 l0 25 8 -25 c4 -14 8 -34 8 -45z m-1701 -7 c-3 -7 -5 -2 -5 12 0
14 2 19 5 13 2 -7 2 -19 0 -25z m-402 -198 c275 -17 416 -45 550 -110 237
-113 405 -336 499 -661 13 -48 27 -104 31 -125 3 -22 -10 13 -29 76 -64 214
-122 333 -221 455 -106 130 -214 208 -361 259 -152 53 -315 73 -666 83 -185 5
-238 9 -242 20 -7 16 198 18 439 3z m2935 -3 c0 -11 -47 -15 -228 -20 -360
-11 -520 -30 -672 -82 -317 -108 -507 -368 -619 -845 -16 -69 -30 -116 -30
-105 -1 36 66 308 98 393 60 164 146 299 261 412 196 190 445 253 1023 259
134 1 167 -2 167 -12z m-2561 -226 c55 -41 383 -411 415 -468 20 -36 -21 6
-151 155 -75 86 -180 202 -232 256 -94 97 -100 108 -32 57z m1715 -63 c-55
-57 -162 -174 -238 -261 -144 -165 -199 -209 -80 -65 175 213 380 428 408 428
5 0 -35 -46 -90 -102z m-1814 -19 c59 -39 335 -317 325 -327 -3 -3 -72 59
-153 139 -81 80 -172 166 -202 192 -61 53 -53 52 30 -4z m2030 47 c0 -2 -39
-37 -87 -77 -49 -41 -138 -124 -198 -186 -118 -120 -155 -147 -83 -61 117 143
368 363 368 324z m-2335 -80 c47 -19 132 -62 189 -97 114 -67 264 -181 247
-187 -5 -2 -51 26 -100 61 -105 76 -233 151 -355 208 -47 22 -86 42 -86 44 0
10 24 4 105 -29z m2539 -35 c-123 -61 -213 -115 -363 -220 -59 -42 -76 -39
-26 5 106 92 278 197 410 251 136 56 125 36 -21 -36z m-1842 7 c91 -109 197
-269 257 -387 41 -79 2 -32 -59 73 -55 95 -146 224 -228 324 -19 23 -30 42
-24 42 6 0 30 -24 54 -52z m1126 -79 c-52 -68 -121 -169 -153 -224 -71 -121
-99 -154 -55 -65 55 111 189 308 263 387 60 64 37 23 -55 -98z m-2335 -64 c54
-227 79 -345 74 -358 -2 -6 -9 16 -15 48 -6 33 -33 149 -59 258 l-47 198 -25
-33 c-80 -104 -211 -221 -327 -292 -103 -63 -264 -104 -264 -67 0 5 19 12 43
15 166 25 409 189 534 358 26 35 38 46 43 36 4 -7 24 -80 43 -163z m3793 -5
c128 -120 285 -207 407 -225 51 -8 61 -21 23 -31 -28 -7 -162 36 -226 73 -113
65 -291 222 -345 306 -10 15 -20 26 -22 24 -4 -5 -88 -351 -99 -412 -4 -22 -9
-35 -11 -28 -4 11 94 449 104 465 2 4 26 -18 52 -50 26 -31 79 -86 117 -122z
m-3128 -56 c140 -58 302 -148 289 -160 -3 -3 -70 26 -149 65 -78 38 -188 85
-243 104 -133 47 -136 48 -130 57 7 12 131 -24 233 -66z m2486 67 c4 -5 -15
-17 -41 -27 -164 -59 -282 -108 -369 -153 -115 -59 -154 -67 -74 -15 83 54
242 129 360 168 117 40 117 40 124 27z m-3219 -166 c45 -124 51 -143 38 -130
-14 13 -68 160 -77 204 -9 52 -1 36 39 -74z m3741 21 c-20 -69 -55 -150 -62
-144 -2 3 9 39 26 81 17 42 33 91 37 109 3 18 8 27 10 21 3 -7 -3 -37 -11 -67z
m-3825 -8 c12 -24 39 -62 62 -85 47 -49 46 -64 -1 -26 -44 34 -112 153 -87
153 2 0 14 -19 26 -42z m3888 -29 c-28 -52 -72 -99 -94 -99 -4 0 11 20 34 45
23 25 49 61 58 80 9 19 21 35 25 35 5 0 -5 -27 -23 -61z m-3154 20 c90 -12
276 -74 392 -130 187 -90 358 -231 488 -404 58 -77 151 -242 143 -251 -3 -2
-17 20 -33 48 -73 135 -206 304 -309 390 -186 156 -442 275 -701 324 -163 30
-149 47 20 23z m2550 1 c-11 -4 -60 -15 -108 -24 -267 -49 -552 -185 -734
-351 -86 -77 -183 -200 -254 -320 -32 -55 -59 -93 -59 -85 0 20 82 162 140
242 67 93 224 246 315 306 204 136 489 238 670 240 36 0 44 -2 30 -8z m-3292
-86 c30 -24 30 -25 7 -19 -31 8 -80 59 -80 83 1 13 5 11 21 -10 11 -15 35 -39
52 -54z m3963 39 c-17 -35 -32 -48 -66 -58 -19 -6 -14 2 25 42 28 27 51 48 53
47 2 -1 -3 -15 -12 -31z m-4041 -48 c24 -14 67 -28 96 -32 30 -3 65 -12 79
-20 25 -14 24 -14 -10 -8 -19 4 -62 10 -95 14 -56 6 -125 41 -125 63 0 12 8
10 55 -17z m4099 4 c-28 -31 -62 -45 -124 -53 -30 -3 -68 -8 -85 -12 -27 -5
-28 -4 -10 7 11 7 44 16 73 20 29 4 74 19 100 33 58 31 71 32 46 5z m-3931
-91 c78 -17 56 -30 -40 -23 -190 12 -229 17 -258 30 -27 13 -15 14 110 9 77
-3 161 -10 188 -16z m3584 -10 c-3 -7 -5 -2 -5 12 0 14 2 19 5 13 2 -7 2 -19
0 -25z m449 23 c-13 -20 -356 -51 -356 -32 0 13 46 22 155 30 152 12 207 12
201 2z m-459 -63 c-3 -8 -6 -5 -6 6 -1 11 2 17 5 13 3 -3 4 -12 1 -19z m-3578
1 c14 -1 4 -5 -24 -9 -63 -10 -211 -12 -202 -3 10 9 136 22 171 17 16 -2 40
-5 55 -5z m158 -21 c-3 -7 -5 -2 -5 12 0 14 2 19 5 13 2 -7 2 -19 0 -25z
m3788 11 c27 -10 -56 -11 -161 -2 -72 7 -75 8 -34 13 56 6 168 0 195 -11z
m-3907 -35 c-2 -2 -37 -8 -78 -14 -41 -6 -87 -15 -102 -20 -18 -6 -30 -5 -34
1 -13 22 19 34 104 39 79 5 118 3 110 -6z m3529 -16 c-3 -7 -5 -2 -5 12 0 14
2 19 5 13 2 -7 2 -19 0 -25z m-3319 -38 c269 -42 547 -150 762 -293 225 -150
437 -387 585 -652 38 -67 95 -230 94 -266 0 -13 -11 12 -24 56 -59 198 -208
429 -399 621 -162 162 -301 257 -514 352 -153 69 -340 125 -509 152 -74 12
-85 22 -81 75 1 13 2 11 5 -6 4 -25 10 -27 81 -39z m1470 -5 l1 -20 -9 20 c-5
11 -8 31 -8 45 l0 25 8 -25 c4 -14 8 -34 8 -45z m2180 51 c8 -5 10 -12 5 -17
-8 -8 -179 13 -208 26 -5 3 35 4 90 2 55 -1 106 -6 113 -11z m-340 -48 c-3 -8
-64 -25 -144 -41 -424 -85 -801 -295 -1038 -577 -157 -187 -261 -367 -317
-545 -18 -57 -18 -58 -13 -15 7 51 39 142 77 217 46 90 183 285 272 385 252
287 592 478 1000 562 139 29 168 31 163 14z m-3253 -83 c77 -14 208 -48 290
-76 403 -133 664 -326 877 -647 87 -133 89 -154 2 -31 -139 197 -244 306 -406
422 -142 101 -375 208 -583 267 -116 32 -381 80 -453 81 -26 0 -56 5 -67 10
-39 18 199 0 340 -26z m3455 25 c-14 -4 -45 -8 -70 -9 -25 -1 -101 -10 -169
-21 -461 -75 -833 -254 -1082 -518 -80 -85 -206 -248 -198 -257 2 -2 36 35 74
82 92 113 191 198 355 306 122 80 339 197 365 197 5 0 -39 -25 -99 -55 -131
-65 -363 -220 -462 -307 -40 -35 -106 -102 -149 -150 -42 -49 -81 -86 -85 -83
-5 3 -18 -7 -30 -22 -41 -52 29 67 88 150 140 196 337 365 551 472 209 105
465 180 746 218 58 8 191 5 165 -3z m-3240 -170 c20 -6 21 -8 5 -8 -11 0 -31
4 -45 8 -20 6 -21 8 -5 8 11 0 31 -4 45 -8z m142 -39 c116 -39 244 -107 402
-212 181 -120 285 -214 390 -352 50 -65 25 -47 -49 37 -115 129 -197 199 -358
307 -166 111 -270 167 -402 215 -112 41 -99 44 17 5z m-344 -22 c342 -65 638
-199 873 -395 112 -93 284 -277 361 -385 62 -87 135 -209 125 -209 -2 0 -29
37 -58 83 -130 199 -347 429 -531 560 -110 79 -304 180 -443 232 -106 40 -363
108 -455 120 -30 4 -62 11 -70 17 -20 12 64 2 198 -23z m3279 24 c-4 -3 -69
-19 -145 -34 -282 -58 -558 -167 -762 -301 -209 -138 -433 -367 -577 -590 -31
-48 -59 -86 -61 -84 -7 8 80 148 153 244 80 106 260 289 370 377 231 184 536
312 900 375 117 21 131 22 122 13z m-2930 -58 c283 -107 619 -343 796 -559 22
-28 -17 6 -89 75 -71 69 -156 146 -189 171 -161 121 -363 237 -530 303 -38 15
-72 29 -74 31 -11 11 25 1 86 -21z m2460 19 c-3 -3 -47 -25 -99 -48 -276 -124
-453 -242 -650 -435 -76 -74 -138 -131 -138 -128 0 13 134 155 208 220 155
136 407 290 602 367 80 31 87 33 77 24z m-3242 -334 c106 -12 399 -57 468 -72
73 -15 49 -21 -39 -9 -161 21 -370 31 -484 23 l-115 -8 90 -8 c175 -14 312
-37 510 -86 110 -27 249 -61 310 -75 136 -33 236 -70 373 -137 108 -52 277
-161 342 -219 40 -36 29 -31 -50 21 -203 135 -461 246 -700 302 -89 21 -121
22 -485 24 l-390 2 -3 28 c-2 16 -10 64 -18 108 -22 120 -23 116 44 116 31 0
98 -5 147 -10z m4165 -4 c0 -8 -6 -49 -14 -92 -8 -44 -17 -95 -20 -114 l-6
-35 -382 0 c-367 0 -387 -1 -488 -24 -225 -51 -484 -159 -667 -279 -111 -73
-113 -74 -113 -68 0 9 177 138 246 179 77 46 228 117 325 152 71 25 624 162
744 184 33 6 118 15 190 21 71 6 131 12 132 14 2 2 -52 6 -120 10 -114 6 -388
-10 -519 -30 -87 -13 -30 5 77 25 208 38 432 67 543 69 55 2 72 -1 72 -12z
m-3400 -757 c307 -28 599 -127 786 -267 109 -81 237 -193 230 -200 -3 -3 -23
9 -44 26 -305 259 -594 373 -1018 401 -76 5 -373 7 -659 4 -286 -3 -518 -3
-515 0 5 5 426 32 635 40 184 8 482 6 585 -4z m3380 -14 c140 -9 260 -17 265
-20 6 -2 -267 -3 -605 -3 -668 2 -710 -1 -932 -57 -237 -60 -388 -136 -595
-302 -93 -73 -122 -91 -87 -52 26 30 209 178 267 218 160 109 453 204 712 230
123 13 664 5 975 -14z m-3260 -59 c260 -39 478 -116 642 -227 32 -22 99 -74
148 -115 78 -65 89 -78 80 -95 -10 -18 -13 -17 -58 11 -86 53 -295 148 -404
184 -245 81 -511 112 -873 100 -254 -8 -334 -21 -140 -23 489 -4 828 -60 1162
-194 57 -22 101 -42 99 -44 -2 -2 -41 7 -87 21 -162 46 -270 60 -474 59 -209
0 -478 -26 -1060 -101 -46 -6 228 -10 794 -11 475 0 875 -4 890 -7 66 -13 111
-27 111 -34 0 -4 -179 -10 -397 -14 -219 -3 -537 -13 -708 -21 -170 -8 -482
-15 -692 -15 l-383 0 0 259 0 258 103 8 c361 27 1065 27 1247 1z m3105 14
c138 -5 292 -12 343 -16 l92 -7 0 -258 0 -259 -382 0 c-211 0 -525 7 -698 15
-173 8 -492 18 -707 22 -216 3 -393 9 -393 13 0 7 45 21 111 34 15 3 415 7
890 7 555 1 839 5 794 11 -690 87 -990 114 -1155 104 -132 -9 -271 -31 -379
-62 -46 -14 -86 -23 -88 -20 -7 7 225 94 337 126 262 74 544 108 925 111 201
1 117 15 -140 23 -533 16 -877 -57 -1243 -265 -76 -44 -83 -46 -92 -29 -8 16
3 29 73 90 211 183 432 283 734 335 197 34 518 42 978 25z m-1931 -374 c114
-67 110 -208 -7 -265 -55 -27 -92 -26 -147 2 -63 31 -93 79 -87 138 11 119
139 185 241 125z m-411 -171 c42 -4 77 -11 77 -16 0 -5 -244 -9 -577 -9 -317
0 -573 3 -570 7 4 3 159 9 344 12 186 3 408 7 493 9 85 2 190 0 233 -3z m1642
-15 c59 -4 -135 -8 -477 -9 -356 0 -578 3 -578 8 0 6 19 12 43 14 66 6 900 -5
1012 -13z m-1594 -80 c10 0 20 -12 23 -26 4 -14 30 -50 59 -78 60 -61 122 -86
206 -86 98 0 209 68 246 150 18 40 18 40 74 40 31 0 568 3 1194 6 l1137 5 0
-30 0 -31 -1160 0 c-915 0 -1161 -3 -1170 -12 -6 -7 -26 -34 -45 -59 -62 -85
-172 -139 -280 -139 -113 0 -218 55 -293 153 l-43 57 -1165 0 -1164 0 0 30 0
31 1183 -5 c650 -3 1189 -5 1198 -6z"/>
<path d="M1528 2613 c7 -3 16 -2 19 1 4 3 -2 6 -13 5 -11 0 -14 -3 -6 -6z"/>
<path d="M5868 2613 c7 -3 16 -2 19 1 4 3 -2 6 -13 5 -11 0 -14 -3 -6 -6z"/>
<path d="M3435 6643 c-366 -42 -589 -105 -855 -238 -240 -121 -423 -251 -618
-439 -123 -119 -124 -120 -97 -129 25 -9 34 -3 119 81 391 385 867 614 1397
673 97 10 108 14 118 35 11 26 11 26 -64 17z"/>
<path d="M3900 6645 c0 -29 24 -43 82 -50 223 -24 457 -77 621 -141 292 -115
581 -302 811 -526 82 -80 105 -97 124 -93 32 8 21 24 -90 131 -312 302 -712
525 -1108 618 -141 33 -440 75 -440 61z"/>
<path d="M3255 6471 c-445 -80 -839 -279 -1165 -590 l-95 -90 34 -1 c28 0 45
11 99 61 236 221 529 397 823 493 115 38 198 58 393 94 23 4 45 16 54 30 14
21 13 22 -14 21 -16 0 -74 -9 -129 -18z"/>
<path d="M4000 6482 c0 -23 44 -42 130 -56 419 -67 837 -277 1149 -575 47 -46
70 -61 92 -61 16 0 29 4 29 9 0 15 -190 184 -297 263 -292 218 -632 361 -981
413 -113 17 -122 18 -122 7z"/>
<path d="M1586 5569 c-62 -73 -134 -187 -196 -314 -58 -117 -124 -284 -117
-292 2 -2 14 0 27 5 16 6 31 32 56 96 48 124 124 268 210 398 58 87 73 117 66
132 -7 17 -12 14 -46 -25z"/>
<path d="M5776 5592 c-5 -15 9 -44 49 -103 84 -125 162 -267 211 -386 24 -59
44 -114 44 -120 0 -7 6 -13 14 -13 8 0 21 -3 30 -6 12 -5 14 -1 7 23 -49 168
-239 522 -324 601 -25 23 -25 23 -31 4z"/>
<path d="M5692 5421 c-12 -31 -22 -63 -22 -70 0 -31 262 -313 276 -298 8 7
-34 106 -83 197 -46 85 -129 216 -142 224 -4 3 -17 -21 -29 -53z"/>
<path d="M1624 5385 c-61 -93 -168 -309 -162 -326 8 -24 278 257 278 290 0 18
-45 121 -53 121 -4 0 -32 -38 -63 -85z"/>
<path d="M1085 4528 c-81 -354 -78 -793 6 -1110 8 -31 14 -38 35 -38 20 0 24
4 20 18 -20 61 -49 225 -61 341 -29 270 -11 550 49 778 13 47 12 53 -3 67 -10
9 -20 16 -23 16 -4 0 -14 -33 -23 -72z"/>
<path d="M6277 4587 c-17 -11 -16 -17 3 -92 37 -148 53 -300 54 -500 0 -229
-18 -387 -69 -587 -6 -25 -4 -28 18 -28 24 0 27 6 45 88 54 232 70 578 38 812
-19 138 -56 320 -65 320 -4 0 -15 -6 -24 -13z"/>
<path d="M1225 4418 c-21 -91 -45 -252 -45 -299 l0 -37 68 -6 c37 -4 85 -9
107 -12 l40 -6 19 56 c11 30 34 81 51 112 l33 58 -125 103 c-68 57 -126 103
-128 103 -2 0 -11 -32 -20 -72z"/>
<path d="M6035 4388 c-66 -55 -120 -103 -120 -107 1 -3 22 -48 48 -100 26 -52
47 -101 47 -109 0 -11 10 -13 43 -9 23 4 72 9 110 13 61 6 67 8 67 29 0 71
-56 385 -69 385 -3 -1 -60 -46 -126 -102z"/>
<path d="M1204 3624 c4 -9 11 -36 17 -60 11 -44 12 -44 55 -44 43 0 43 1 54
43 6 23 13 47 15 53 4 13 -47 24 -109 24 -31 0 -37 -3 -32 -16z"/>
<path d="M6087 3633 c-24 -4 -26 -8 -20 -31 19 -80 17 -77 64 -80 l45 -3 16
61 16 60 -47 -1 c-25 -1 -58 -4 -74 -6z"/>
<path d="M1922 2045 c90 -87 244 -204 390 -294 793 -495 1766 -535 2596 -106
225 116 505 315 626 444 l30 31 -33 0 c-26 0 -48 -12 -100 -58 -189 -165 -367
-285 -582 -391 -242 -120 -497 -203 -764 -248 -137 -23 -589 -26 -725 -5 -451
70 -855 238 -1215 508 -60 45 -138 107 -172 138 -49 45 -68 56 -95 56 l-33 -1
77 -74z"/>
<path d="M2072 1201 c-106 -36 -161 -114 -162 -227 0 -106 35 -173 117 -221
40 -23 61 -28 139 -31 100 -5 146 5 206 44 78 50 117 175 88 281 -20 68 -89
136 -159 157 -71 21 -163 20 -229 -3z m199 -34 c55 -36 84 -106 84 -202 0
-107 -29 -169 -95 -202 -24 -13 -56 -23 -70 -23 -14 0 -46 10 -70 23 -118 59
-136 295 -30 391 36 32 46 36 94 36 38 0 62 -6 87 -23z"/>
<path d="M2720 1211 c-124 -38 -180 -114 -180 -245 1 -115 43 -182 143 -226
55 -24 184 -29 246 -9 117 39 183 146 167 271 -19 140 -123 219 -285 217 -36
0 -77 -4 -91 -8z m180 -43 c52 -35 74 -89 79 -186 4 -101 -14 -157 -64 -201
-66 -57 -159 -51 -213 15 -83 100 -64 312 33 374 43 28 122 27 165 -2z"/>
<path d="M3782 1204 c-62 -32 -86 -127 -46 -181 11 -15 61 -56 110 -90 124
-87 150 -141 98 -202 -47 -56 -143 -62 -207 -11 -49 39 -66 123 -35 183 5 9 6
17 4 17 -15 0 -36 -65 -36 -108 0 -97 73 -157 190 -157 119 1 191 60 198 164
5 77 -19 109 -143 194 -135 91 -146 107 -100 152 19 20 34 25 74 25 43 0 53
-4 75 -30 l25 -30 7 35 c3 20 3 39 0 42 -4 4 -46 8 -94 10 -67 3 -95 0 -120
-13z"/>
<path d="M4101 1165 c1 -45 2 -47 11 -23 11 32 62 52 118 46 l35 -3 0 -220 0
-219 -25 -13 c-22 -11 -10 -13 85 -12 86 0 104 3 82 11 -15 5 -29 19 -32 31
-3 12 -4 112 -3 222 l3 200 37 3 c63 5 101 -10 120 -48 l18 -35 0 55 0 55
-225 0 -225 0 1 -50z"/>
<path d="M4752 1205 c-109 -34 -172 -118 -172 -228 0 -111 41 -186 123 -229
52 -27 203 -37 263 -18 101 32 162 106 171 208 16 171 -97 283 -281 281 -34 0
-80 -6 -104 -14z m186 -35 c68 -42 103 -148 84 -258 -13 -79 -44 -126 -100
-153 -149 -73 -277 107 -217 307 14 47 60 104 95 117 35 13 106 6 138 -13z"/>
<path d="M5825 1211 c-61 -4 -102 -9 -92 -13 16 -7 17 -25 15 -230 l-3 -222
-25 -13 c-21 -11 8 -13 181 -13 l207 0 7 38 c3 20 9 48 12 62 5 23 3 23 -18
-7 -35 -48 -75 -63 -168 -63 l-81 0 0 100 0 100 70 0 c67 0 71 -2 88 -29 l17
-28 0 73 1 72 -18 -29 c-17 -28 -21 -29 -88 -29 l-70 0 0 100 0 100 38 0 c41
0 66 -19 75 -55 2 -11 5 6 6 38 1 53 0 57 -21 55 -13 -1 -72 -4 -133 -7z"/>
<path d="M1454 1194 c14 -13 16 -47 16 -217 l0 -202 -31 32 c-18 17 -38 52
-45 79 l-14 49 3 -52 c8 -109 88 -165 238 -165 72 0 97 4 142 25 65 30 87 63
87 133 0 39 -5 51 -34 80 -19 19 -43 34 -53 34 -31 0 -34 11 -13 38 31 39 27
102 -8 135 -39 38 -80 47 -200 47 -94 0 -102 -1 -88 -16z m186 -34 c30 -30 28
-113 -4 -145 l-24 -24 29 -6 c44 -10 77 -42 89 -86 19 -71 -31 -140 -112 -154
l-38 -6 0 221 c0 213 1 220 20 220 11 0 29 -9 40 -20z"/>
<path d="M3180 1190 c19 -19 20 -33 20 -223 0 -216 -1 -222 -50 -240 -8 -3 35
-6 95 -6 95 -1 107 1 85 12 l-25 13 -3 216 c-2 187 0 218 14 232 14 15 8 16
-70 16 l-86 0 20 -20z"/>
<path d="M3488 1197 c8 -10 -10 -40 -74 -125 -47 -61 -84 -116 -82 -122 1 -5
54 -72 117 -150 137 -168 193 -212 279 -218 37 -3 69 1 92 11 32 14 33 15 10
16 -34 2 -98 32 -138 66 -18 15 -89 97 -158 182 l-124 154 76 90 c42 50 86 95
98 99 15 6 3 9 -43 9 -51 1 -61 -2 -53 -12z"/>
<path d="M5224 1194 c14 -14 16 -45 14 -232 l-3 -216 -25 -13 c-22 -11 -11
-13 80 -13 83 1 101 3 85 12 -11 6 -23 16 -27 22 -4 6 -8 104 -8 219 l0 207
48 0 c58 0 88 -19 101 -65 19 -69 -17 -131 -81 -142 -39 -6 -39 -6 -20 -27 11
-11 56 -75 100 -142 88 -133 141 -185 210 -208 53 -19 149 -21 189 -5 l28 11
-50 13 c-27 7 -62 17 -77 23 -41 17 -112 86 -185 179 -35 46 -79 94 -96 108
-18 13 -26 25 -19 25 30 0 84 34 97 61 24 46 19 112 -11 148 -35 42 -77 51
-232 51 -122 0 -132 -1 -118 -16z"/>
</g>
</svg>
